<svg xmlns="http://www.w3.org/2000/svg" viewBox="0 0 177.076 116.444">
  <defs>
    <style>
      .cls-1 {
        fill: #fff;
      }
    </style>
  </defs>
  <g id="Commitment" transform="translate(1863.743 -3360.426)">
    <path id="iconfinder_apologize_hand_ramadan_hand_drawn_3213241" class="cls-1" d="M184.671,32.8c-1.38-6.128-4.42-9.06-10.842-10.456a24.606,24.606,0,0,0-9.767.253,11.758,11.758,0,0,0-8.3,6.359,13.459,13.459,0,0,0-1.451,7.542c-7.553,1-15.471,1.246-23.088-1.935s-17.882-6.523-29.592-4.082c-2.757.584-3.911-.42-4.6-1.358-3.33-4.547-8.908-6.631-15.315-5.7a93.677,93.677,0,0,0-13.685,3.245c-10.63,3.2-19.62,4.208-28.185,3.215-.089-.339-.2-.673-.283-1.008-.755-3.036-1.607-6.478-5.1-9.213a14.54,14.54,0,0,0-13.41-2.013,12.811,12.811,0,0,0-8.394,9.168,71.5,71.5,0,0,0-2.076,14.746c-.223,6.441-.536,12.885-.852,19.322-.327,6.686-.651,13.369-.874,20.055-.22,6.392.651,12.595,8.424,14.686a16.8,16.8,0,0,0,4.387.6c5.492,0,10.63-2.817,14.3-8a16.422,16.422,0,0,0,2.08-4,34.781,34.781,0,0,0,4.219,1.113c-.208.42-.465.863-.807,1.418-.234.38-.473.759-.7,1.153a13.747,13.747,0,0,0-1.317,10.4,10.106,10.106,0,0,0,4.681,6.232,6.9,6.9,0,0,0,3.416.886,12.558,12.558,0,0,0,3.754-.722c.342-.1.644-.182.949-.264a8.364,8.364,0,0,1,.64,1.325c1.488,4.324,4.156,7.11,7.516,7.84a8.307,8.307,0,0,0,1.712.182,8.158,8.158,0,0,0,1.656-.2,12.931,12.931,0,0,0,8.629,6.7,11.9,11.9,0,0,0,2.355.234,12.991,12.991,0,0,0,4.573-.893,8.443,8.443,0,0,0,7.475,7.959,13.3,13.3,0,0,0,6.307-.666c2.456,4,5.373,6.139,8.692,6.359.19.011.372.019.558.019,3.676,0,7.181-2.419,10.415-7.177a4.2,4.2,0,0,0,.443-.822c.175-.193.309-.391.458-.588.5.067,1.008.112,1.5.2a23.894,23.894,0,0,0,4,.424,12.517,12.517,0,0,0,2.385-.223c5.209-.993,7.222-4.446,8.5-7.717.1,0,.2.026.294.026a11.306,11.306,0,0,0,6.746-2.065,12.729,12.729,0,0,0,4.7-7.8c1.053.186,2.106.38,3.163.5a11.3,11.3,0,0,0,1.313.078,7.456,7.456,0,0,0,5.689-2.273,7.292,7.292,0,0,0,1.47-6.623,31.7,31.7,0,0,0-1.406-4.956,26.215,26.215,0,0,1,7.073-1.652c.145.432.264.882.391,1.328.655,2.366,1.555,5.607,5.391,7.081a21.323,21.323,0,0,0,7.754,1.28c1.853,0,3.669-.153,5.384-.3l.439-.041c3.695-.305,6.232-3.364,6.314-7.605.1-4.885.316-9.775.536-14.66.35-7.825.711-15.907.566-23.9-.033-1.883-.015-3.773.007-5.659C185.936,44.492,185.992,38.642,184.671,32.8ZM31.4,85c-3.267,4.625-7.884,6.534-12.673,5.239-2.761-.74-4.551-1.779-4.3-9.109.223-6.66.547-13.313.871-19.97.316-6.467.629-12.934.852-19.4a65.937,65.937,0,0,1,1.913-13.585,7.136,7.136,0,0,1,4.8-5.239,9.249,9.249,0,0,1,2.992-.487,8.482,8.482,0,0,1,5.164,1.619C33,25.616,33.5,27.651,34.141,30.226c.171.688.342,1.377.543,2.065a10.084,10.084,0,0,0-1.168,5.693l0,.48V52.1c0,8.279-.011,16.55.03,24.833C33.568,79.932,33.211,82.448,31.4,85ZM49.649,99.366c-1.559.476-2.21.625-2.813.286a4.589,4.589,0,0,1-2.02-2.861,8.218,8.218,0,0,1,.8-6.132c.182-.324.383-.644.58-.96a12.551,12.551,0,0,0,1.924-4.379A11.6,11.6,0,0,0,55.193,79.9a7.991,7.991,0,0,1,1.894-.93l.953-.394c2.232-.96,5.938-.171,6.478.48a9.31,9.31,0,0,0,1.4,2.846,4.5,4.5,0,0,1,.566,1.012c-4.085,3.4-7.055,7.52-9.923,11.508l-1.4,1.935c-.3.409-.592.889-.886,1.384-.153.249-.368.614-.551.886A14.031,14.031,0,0,0,49.649,99.366Zm11.933,8.781c-1.358-.3-2.6-1.827-3.416-4.186a11.225,11.225,0,0,0-.584-1.254,12.619,12.619,0,0,0,1.488-2.1c.2-.335.4-.673.6-.953l1.421-1.961c2.791-3.877,5.425-7.538,8.963-10.485,2.4-1.987,4.647-2.731,7.029-2.393.841.127,1.421.465,1.816,3.866a6.364,6.364,0,0,0,.6,1.976l0,0c-4.141,4.852-8.833,10.348-13.655,15.427C64.328,107.686,62.814,108.415,61.582,108.147ZM73.5,114.815a7.463,7.463,0,0,1-4.815-3.8,14.68,14.68,0,0,0,1.2-1.083c4.923-5.191,9.667-10.749,13.853-15.653a4.549,4.549,0,0,1,3.8-1.659A5.483,5.483,0,0,1,91.736,95.3a10.065,10.065,0,0,1,1.153,4.465c.067.621.141,1.25.238,1.89a14.81,14.81,0,0,0-4.074,2.471,57.448,57.448,0,0,0-4.893,4.74c-1.142,1.2-2.281,2.4-3.5,3.505C78.393,114.424,75.859,115.288,73.5,114.815Zm20.212,5.109a7.043,7.043,0,0,1-6.191,2.125,2.9,2.9,0,0,1-2.679-3.092,6.786,6.786,0,0,0-.554-2.359c.041-.037.082-.06.123-.093,1.325-1.2,2.564-2.5,3.8-3.8a52.209,52.209,0,0,1,4.409-4.29c1.239-1.027,3.032-2.166,4.551-1.8,1.235.3,2.441,1.693,3.393,3.911a7.313,7.313,0,0,1,.372,1.406,8.359,8.359,0,0,0-1.4.975,27.848,27.848,0,0,0-3.818,4.458C95.073,118.234,94.43,119.109,93.715,119.924Zm15.259,1.734a3.154,3.154,0,0,0-.8,1.3c-2.125,3.133-4.361,4.874-6.005,4.751-1.4-.089-2.977-1.5-4.424-3.914.056-.063.112-.123.164-.186.819-.926,1.563-1.931,2.3-2.928a23.378,23.378,0,0,1,3.036-3.605c.852-.774,1.217-1.09,4.138,1.574l.387.353c.543.491,1.663,1.511,1.745,1.905A1.958,1.958,0,0,1,108.974,121.658Zm38.853-19.549a2.727,2.727,0,0,1-2.225.4c-1.25-.141-2.486-.368-3.721-.588l-.58-.1a16.594,16.594,0,0,0-3.085-4.13c-.454-.484-.9-.96-1.313-1.459-2.281-2.828-4.766-5.507-7.166-8.1-4.063-4.387-7.9-8.528-10.936-13.384a2.791,2.791,0,1,0-4.729,2.965c3.323,5.3,7.516,9.83,11.572,14.21,2.337,2.523,4.755,5.135,6.921,7.817.491.6,1.038,1.191,1.593,1.779,1.8,1.909,2.567,2.887,2.355,4.253a7.578,7.578,0,0,1-2.683,5.06,6.119,6.119,0,0,1-4.149.953,9.675,9.675,0,0,0-2.065-2.151,8.326,8.326,0,0,1-.882-.77l-2.385-2.526c-6.255-6.6-12.163-12.837-16.465-20.487a2.791,2.791,0,0,0-4.867,2.735c4.644,8.253,11.069,15.032,17.283,21.592l2.37,2.508a13.939,13.939,0,0,0,1.44,1.287,11.157,11.157,0,0,1,.923.793,1.551,1.551,0,0,1-.141.543c-1.131,2.917-2.11,3.888-4.372,4.32a12.261,12.261,0,0,1-4.42-.231c-.435-.074-.882-.1-1.317-.167a10.562,10.562,0,0,0-3.252-4.361l-1.879,2.065,1.492-2.415a15.1,15.1,0,0,0-4.64-3.155,13.323,13.323,0,0,0-.811-3.029c-2.043-4.774-4.845-6.478-6.936-7.058-.13-.673-.231-1.369-.313-2.117a14.966,14.966,0,0,0-1.987-6.85,11.146,11.146,0,0,0-8.517-5.258,9.721,9.721,0,0,0-3.557.461c-.316-2.56-1.213-7.423-6.463-8.219a13.018,13.018,0,0,0-6.6.8,14.023,14.023,0,0,0-.748-1.269,4.85,4.85,0,0,1-.651-1.161,5.982,5.982,0,0,0-3.468-3.858,13.806,13.806,0,0,0-10.642-.342l-.8.331c-1.5.6-3.371,1.351-4.469,3.032-2.809,4.316-5.9,3.654-11.456,1.872.03-.614.048-1.217.045-1.8-.041-8.268-.033-16.528-.03-24.8V38.453l0-.525a6.716,6.716,0,0,1,.234-2.482c9.291,1.075,18.976-.019,30.306-3.431a88.957,88.957,0,0,1,12.867-3.062c2.326-.331,6.452-.35,9.309,2.679L89.73,32.86c-4.409,2.582-8.818,5.172-13.183,7.821a51.514,51.514,0,0,0-6.757,4.856l-.435.368c-1.9,1.6-5.075,4.275-4.123,8.7.964,4.5,6.936,8.39,11.237,8.614,5.682.257,10.909-1.291,15.285-2.869l2.206-.811a55.55,55.55,0,0,1,10.984-3.23c7.68-1.15,14.031,1.979,20.621,10.128,3.207,3.966,6.151,8.331,9,12.554a159.952,159.952,0,0,0,10.872,14.857c1.5,1.753,2.028,4.2,2.541,6.575A2.061,2.061,0,0,1,147.827,102.108Zm1.232-12.692a166.067,166.067,0,0,1-9.868-13.555c-2.91-4.32-5.927-8.785-9.287-12.945-4.952-6.124-12.989-14.031-25.785-12.141a60.883,60.883,0,0,0-12.093,3.516l-2.169.8c-4.048,1.466-8.446,2.8-13.1,2.549-2.3-.119-5.741-2.712-6.065-4.212-.212-.99.35-1.645,2.262-3.259l.465-.394a45.92,45.92,0,0,1,6.028-4.324c4.342-2.638,8.725-5.205,13.108-7.777l3.825-2.247a10.583,10.583,0,0,0,6.392.525c7.966-1.659,16.07-.5,26.3,3.769a41.464,41.464,0,0,0,16.212,3.04,76.283,76.283,0,0,0,10.5-.856c1.581,4.231,1.808,8.629,1.972,13.268l.1,2.653c.138,3.04.238,6.08.342,9.12.227,6.593.45,13.4,1.075,20.126C155.693,87.065,151.243,88.565,149.059,89.417ZM180.3,50.1c-.022,1.942-.041,3.885-.007,5.816.145,7.814-.216,15.813-.558,23.545-.22,4.93-.439,9.864-.543,14.8-.019.941-.242,2.08-1.2,2.158l-.45.037c-3.8.327-7.382.633-10.656-.629-1.12-.428-1.425-1.217-2.024-3.367-.171-.614-.357-1.284-.6-1.953a5.144,5.144,0,0,0,.685-2.869c-.692-6.91-.926-14.009-1.157-20.87-.1-3.066-.212-6.128-.35-9.19l-.1-2.59c-.19-5.492-.387-11.17-2.988-16.848a7.481,7.481,0,0,1,.342-6.567,6.338,6.338,0,0,1,4.309-3.468,19.987,19.987,0,0,1,7.639-.305c4.324.941,5.678,2.225,6.586,6.236C180.4,39.241,180.354,44.514,180.3,50.1Z" transform="translate(-1872.572 3343.577)"/>
  </g>
</svg>
