<svg xmlns="http://www.w3.org/2000/svg" viewBox="0 0 190.813 113.874">
  <defs>
    <style>
      .cls-1 {
        fill: #fff;
      }
    </style>
  </defs>
  <g id="Integrity" transform="translate(-865.187 -2490.563)">
    <g id="Group_62" data-name="Group 62" transform="translate(905.193 2496.719)">
      <circle id="Ellipse_41" data-name="Ellipse 41" class="cls-1" cx="24.621" cy="24.621" r="24.621" transform="translate(30.777)"/>
      <path id="Path_104" data-name="Path 104" class="cls-1" d="M30-.762S41.595,9.106,54.6,9.106,82.037-.762,82.037-.762c11.9,0,28.76,11.992,28.76,23.89V38.516A21.544,21.544,0,0,1,89.253,60.06H21.544A21.544,21.544,0,0,1,0,38.516V23.128C0,11.23,18.1-.762,30-.762Z" transform="translate(0 47.659)"/>
    </g>
    <path id="Subtraction_1" data-name="Subtraction 1" class="cls-1" d="M69.417,89.252H46.163V83.1c0-5.47-3.615-11.45-9.919-16.408-5.869-4.616-13.088-7.483-18.841-7.483A71,71,0,0,1,0,67.459V63.053A27.87,27.87,0,0,0,17.832,42.843a19.3,19.3,0,0,1,5.5-.9c.091.077,9.182,7.675,19.135,7.675,10,0,21.224-7.6,21.337-7.675,9.356,0,22.37,9.363,22.37,18.581V72.5A16.776,16.776,0,0,1,69.417,89.252ZM43.086,43.089A21.544,21.544,0,1,1,64.63,21.544,21.569,21.569,0,0,1,43.086,43.089Z" transform="translate(969.826 2493.641)"/>
    <path id="Subtraction_2" data-name="Subtraction 2" class="cls-1" d="M40.031,89.252H16.766A16.78,16.78,0,0,1,0,72.5V60.528c0-9.218,13.021-18.581,22.381-18.581.113.077,11.4,7.675,21.348,7.675,10.006,0,19.058-7.6,19.148-7.675a19.305,19.305,0,0,1,5.5.894A27.873,27.873,0,0,0,86.222,63.054V67.46a71.046,71.046,0,0,1-17.414-8.253c-5.757,0-12.981,2.868-18.853,7.483-6.307,4.957-9.924,10.938-9.924,16.408v6.155Zm3.08-46.163A21.544,21.544,0,1,1,64.666,21.544,21.574,21.574,0,0,1,43.111,43.089Z" transform="translate(865.187 2490.563)"/>
  </g>
</svg>
