<svg xmlns="http://www.w3.org/2000/svg" viewBox="0 0 229.465 229.465">
  <defs>
    <style>
      .cls-1 {
        fill: #fff;
      }
    </style>
  </defs>
  <g id="Mission" transform="translate(-1571.548 -1307.712)">
    <path id="Exclusion_3" data-name="Exclusion 3" class="cls-1" d="M114.732,229.465a115.579,115.579,0,0,1-23.123-2.331A114.1,114.1,0,0,1,50.584,209.87,115.068,115.068,0,0,1,9.016,159.391a114.156,114.156,0,0,1-6.685-21.536,115.851,115.851,0,0,1,0-46.245A114.1,114.1,0,0,1,19.594,50.584,115.068,115.068,0,0,1,70.073,9.016,114.156,114.156,0,0,1,91.61,2.331a115.851,115.851,0,0,1,46.245,0A114.1,114.1,0,0,1,178.88,19.594a115.068,115.068,0,0,1,41.568,50.479,114.156,114.156,0,0,1,6.685,21.536,115.849,115.849,0,0,1,0,46.245A114.1,114.1,0,0,1,209.87,178.88a115.068,115.068,0,0,1-50.479,41.568,114.157,114.157,0,0,1-21.536,6.685A115.58,115.58,0,0,1,114.732,229.465Zm0-203.582a88.85,88.85,0,1,0,88.85,88.85A88.951,88.951,0,0,0,114.732,25.882Z" transform="translate(1571.548 1307.712)"/>
    <path id="Exclusion_4" data-name="Exclusion 4" class="cls-1" d="M82.189,164.378a82.8,82.8,0,0,1-16.564-1.67,81.74,81.74,0,0,1-29.389-12.367A82.429,82.429,0,0,1,6.459,114.181,81.775,81.775,0,0,1,1.67,98.753a82.991,82.991,0,0,1,0-33.128A81.739,81.739,0,0,1,14.037,36.236,82.429,82.429,0,0,1,50.2,6.459,81.776,81.776,0,0,1,65.625,1.67a82.991,82.991,0,0,1,33.128,0,81.738,81.738,0,0,1,29.389,12.367A82.428,82.428,0,0,1,157.919,50.2a81.771,81.771,0,0,1,4.789,15.428,82.99,82.99,0,0,1,0,33.128,81.739,81.739,0,0,1-12.367,29.389,82.429,82.429,0,0,1-36.161,29.777,81.771,81.771,0,0,1-15.428,4.789A82.8,82.8,0,0,1,82.189,164.378Zm0-144.367a62.178,62.178,0,1,0,62.178,62.178A62.248,62.248,0,0,0,82.189,20.011Z" transform="translate(1604.092 1340.255)"/>
    <path id="Exclusion_5" data-name="Exclusion 5" class="cls-1" d="M53.6,107.208a54,54,0,0,1-10.8-1.089,53.309,53.309,0,0,1-19.167-8.066A53.761,53.761,0,0,1,4.212,74.469,53.334,53.334,0,0,1,1.089,64.407a54.127,54.127,0,0,1,0-21.606A53.311,53.311,0,0,1,9.155,23.633,53.76,53.76,0,0,1,32.739,4.212,53.334,53.334,0,0,1,42.8,1.089a54.127,54.127,0,0,1,21.606,0A53.311,53.311,0,0,1,83.574,9.155,53.761,53.761,0,0,1,103,32.739,53.332,53.332,0,0,1,106.119,42.8a54.126,54.126,0,0,1,0,21.606,53.31,53.31,0,0,1-8.066,19.167A53.761,53.761,0,0,1,74.469,103a53.332,53.332,0,0,1-10.062,3.123A54,54,0,0,1,53.6,107.208Zm0-93.653A40.049,40.049,0,1,0,93.653,53.6,40.094,40.094,0,0,0,53.6,13.555Z" transform="translate(1632.677 1368.841)"/>
    <path id="Exclusion_6" data-name="Exclusion 6" class="cls-1" d="M30.713,61.427a30.938,30.938,0,0,1-6.19-.624,30.545,30.545,0,0,1-10.982-4.621A30.8,30.8,0,0,1,2.414,42.668,30.559,30.559,0,0,1,.624,36.9a31.013,31.013,0,0,1,0-12.38A30.545,30.545,0,0,1,5.245,13.541,30.8,30.8,0,0,1,18.758,2.414,30.558,30.558,0,0,1,24.524.624a31.013,31.013,0,0,1,12.38,0A30.545,30.545,0,0,1,47.886,5.245,30.8,30.8,0,0,1,59.013,18.758a30.557,30.557,0,0,1,1.79,5.765,31.012,31.012,0,0,1,0,12.38,30.545,30.545,0,0,1-4.621,10.982A30.8,30.8,0,0,1,42.668,59.013,30.557,30.557,0,0,1,36.9,60.8,30.939,30.939,0,0,1,30.713,61.427Zm0-48.433A17.719,17.719,0,1,0,48.433,30.713,17.739,17.739,0,0,0,30.713,12.994Z" transform="translate(1655.567 1391.731)"/>
    <circle id="Ellipse_23" data-name="Ellipse 23" class="cls-1" cx="9.55" cy="9.55" r="9.55" transform="translate(1676.73 1412.894)"/>
  </g>
</svg>
